Coordinates
version=1
nRows=10
nColumns=40
inDegrees=yes

Units are S.I. units (second, meters, Newtons, ...)
If the header above contains a line with 'inDegrees', this indicates whether rotational values are in degrees (yes) or radians (no).

endheader
time	pelvis_tilt	pelvis_list	pelvis_rotation	pelvis_tx	pelvis_ty	pelvis_tz	hip_flexion_r	hip_adduction_r	hip_rotation_r	knee_angle_r	knee_angle_r_beta	ankle_angle_r	subtalar_angle_r	mtp_angle_r	hip_flexion_l	hip_adduction_l	hip_rotation_l	knee_angle_l	knee_angle_l_beta	ankle_angle_l	subtalar_angle_l	mtp_angle_l	lumbar_extension	lumbar_bending	lumbar_rotation	arm_flex_r	arm_add_r	arm_rot_r	elbow_flex_r	pro_sup_r	wrist_flex_r	wrist_dev_r	arm_flex_l	arm_add_l	arm_rot_l	elbow_flex_l	pro_sup_l	wrist_flex_l	wrist_dev_l
      0.72400000	     13.17279919	     -4.39237505	     -2.36322661	      0.91937516	      0.92082577	     -0.29550004	    -29.77931417	      5.48858168	     -0.51901705	     25.75051836	      0.44943133	     -8.57328117	      0.00000000	      0.00000000	     21.30750779	     -3.01767149	      2.34300336	     23.33262640	      0.40723115	    -18.82377268	      0.00000000	      0.00000000	    -26.77759418	      2.46953127	      6.07595172	      6.91819542	    -18.31390097	     12.82200359	     46.63416675	     76.52218419	      0.00000000	      0.00000000	      1.55140198	    -20.64812998	     17.06678526	     44.17059390	     81.06711057	      0.00000000	      0.00000000
      0.72800000	     13.25046669	     -4.24911183	     -2.31360899	      0.92607506	      0.92070268	     -0.29568560	    -29.77685289	      5.27827359	     -0.64139939	     26.37218713	      0.46028150	     -9.79920552	      0.00000000	      0.00000000	     21.45025040	     -2.81478397	      2.36822659	     24.42161042	      0.42623751	    -19.10177501	      0.00000000	      0.00000000	    -26.79584343	      2.28634315	      5.93975300	      6.77854204	    -18.15603872	     12.64855861	     46.38468138	     76.59881196	      0.00000000	      0.00000000	      1.34694468	    -20.77149459	     16.92517250	     44.41058371	     81.21468250	      0.00000000	      0.00000000
      0.73200000	     13.23454403	     -4.12204918	     -2.17884384	      0.93319289	      0.92048862	     -0.29605138	    -29.77033709	      5.14784425	     -0.67732883	     26.82534013	      0.46819051	    -10.99518831	      0.00000000	      0.00000000	     21.60618280	     -2.54480142	      2.73750347	     25.42950883	      0.44382866	    -19.22242429	      0.00000000	      0.00000000	    -26.65024660	      2.18253246	      5.67712746	      6.56680991	    -18.02861616	     12.56856244	     46.24005964	     76.71959326	      0.00000000	      0.00000000	      1.20772780	    -20.76936191	     16.64020051	     44.26348296	     81.26396750	      0.00000000	      0.00000000
      0.73600000	     13.23582759	     -3.92558885	     -2.20229693	      0.94022082	      0.92047231	     -0.29624852	    -29.75364120	      4.92379742	     -0.27313518	     27.39024346	      0.47804993	    -11.76872653	      0.00000000	      0.00000000	     21.54012146	     -2.23031244	      3.14292374	     26.07429162	      0.45508224	    -19.48523182	      0.00000000	      0.00000000	    -26.53847132	      1.93365413	      5.54049802	      6.35100909	    -17.91446812	     12.53619514	     46.07172572	     76.74642075	      0.00000000	      0.00000000	      1.08287878	    -20.76996571	     16.55673774	     44.15272561	     81.28676924	      0.00000000	      0.00000000
      0.74000000	     13.37863452	     -3.71894891	     -2.12830411	      0.94690954	      0.92068061	     -0.29683359	    -29.76401358	      4.64637971	     -0.29276849	     27.98977398	      0.48851371	    -13.20645263	      0.00000000	      0.00000000	     21.50842017	     -1.86784583	      3.44247431	     27.06152780	      0.47231276	    -19.65076759	      0.00000000	      0.00000000	    -26.63306185	      1.74349234	      5.32344954	      6.25687209	    -17.81156436	     12.41304188	     45.83803217	     76.79782248	      0.00000000	      0.00000000	      1.05658242	    -20.71860801	     16.40641899	     44.03057066	     81.31181396	      0.00000000	      0.00000000
      0.74400000	     13.38007793	     -3.53089951	     -1.82867842	      0.95447671	      0.92075775	     -0.29726571	    -29.76295210	      4.47286661	     -0.87832110	     28.32892644	      0.49443304	    -15.11861908	      0.00000000	      0.00000000	     21.56582700	     -1.51333571	      3.84479069	     28.03644074	      0.48932820	    -19.21409976	      0.00000000	      0.00000000	    -26.45835965	      1.64135350	      4.85984350	      6.00036880	    -17.58487355	     12.30412315	     45.56919057	     76.96896984	      0.00000000	      0.00000000	      0.82480819	    -20.79648242	     16.24470438	     43.94898973	     81.42168679	      0.00000000	      0.00000000
      0.74800000	     13.49663159	     -3.34581576	     -1.74458950	      0.96150122	      0.92114106	     -0.29763346	    -29.75727364	      4.21999669	     -1.01028721	     28.88306112	      0.50410451	    -16.63995314	      0.00000000	      0.00000000	     21.40242999	     -1.20047444	      4.08842345	     28.78854102	      0.50245483	    -18.96988869	      0.00000000	      0.00000000	    -26.47255910	      1.46015632	      4.63171403	      5.82145970	    -17.42936084	     12.18723068	     45.30596648	     77.06388978	      0.00000000	      0.00000000	      0.73018489	    -20.78337015	     16.09255478	     43.82157309	     81.45941132	      0.00000000	      0.00000000
      0.75200000	     13.57508153	     -3.11633646	     -1.60833876	      0.96880513	      0.92153864	     -0.29799920	    -29.75274980	      3.95975391	     -1.23820400	     29.33298138	      0.51195710	    -18.35104651	      0.00000000	      0.00000000	     21.27545993	     -0.81128541	      4.37190861	     29.59275256	      0.51649097	    -18.46474557	      0.00000000	      0.00000000	    -26.40150962	      1.25230694	      4.31850377	      5.60639421	    -17.25367936	     12.11943664	     45.03637453	     77.17794063	      0.00000000	      0.00000000	      0.79848757	    -20.71945928	     16.10175356	     43.27895491	     81.47900686	      0.00000000	      0.00000000
      0.75600000	     13.71104375	     -2.93924072	     -1.48935837	      0.97598149	      0.92198827	     -0.29813253	    -29.74983687	      3.72731569	     -1.48780229	     29.85524540	      0.52107233	    -20.17227770	      0.00000000	      0.00000000	     21.07913662	     -0.51907874	      4.53032737	     30.36744533	      0.53001191	    -17.91568493	      0.00000000	      0.00000000	    -26.43658012	      1.05679659	      4.10972966	      5.32771916	    -17.08025531	     11.88613394	     44.90721642	     77.29389354	      0.00000000	      0.00000000	      0.50670806	    -20.87570256	     15.98801243	     43.60040500	     81.48557142	      0.00000000	      0.00000000
      0.76000000	     13.84348112	     -2.70704750	     -1.39764258	      0.98291246	      0.92259245	     -0.29825759	    -29.74305947	      3.52834569	     -1.30109199	     30.40678090	      0.53069844	    -21.50418648	      0.00000000	      0.00000000	     20.85188969	     -0.14102217	      4.82827992	     31.04475105	      0.54183312	    -17.65356678	      0.00000000	      0.00000000	    -26.48702526	      0.81563009	      3.84864689	      5.14614500	    -16.89814830	     11.77463349	     44.76711453	     77.35063925	      0.00000000	      0.00000000	      0.43287282	    -20.95806637	     15.95206638	     43.46279167	     81.49493387	      0.00000000	      0.00000000
